PathFileType	4	(X/Y/Z)	C:/Users/opensim2020/Desktop/walking_exp_matlab/subject06_walking12_straigt_04.trc	
DataRate	CameraRate	NumFrames	NumMarkers	Units	OrigDataRate	OrigDataStartFrame	OrigNumFrames	
100.00	100.00	6	48	mm	100.00	2788	181	
Frame#	Time	LFHD			RFHD			LBHD			RBHD			C7			T10			CLAV			STRN			RBAK			LSHO			LUPA			LELB			LFRM			LWRA			LWRB			LFIN			RSHO			RUPA			RELB			RFRM			RWRA			RWRB			RFIN			LASI			RASI			LPSI			RPSI			LTHI			LKNE			LTIB			LANK			LHEE			LTOE			RTHI			RKNE			RTIB			RANK			RHEE			RTOE			*39			*40			*41			*42			*43			*44			*45			*46			*47			
		X1	Y1	Z1	X2	Y2	Z2	X3	Y3	Z3	X4	Y4	Z4	X5	Y5	Z5	X6	Y6	Z6	X7	Y7	Z7	X8	Y8	Z8	X9	Y9	Z9	X10	Y10	Z10	X11	Y11	Z11	X12	Y12	Z12	X13	Y13	Z13	X14	Y14	Z14	X15	Y15	Z15	X16	Y16	Z16	X17	Y17	Z17	X18	Y18	Z18	X19	Y19	Z19	X20	Y20	Z20	X21	Y21	Z21	X22	Y22	Z22	X23	Y23	Z23	X24	Y24	Z24	X25	Y25	Z25	X26	Y26	Z26	X27	Y27	Z27	X28	Y28	Z28	X29	Y29	Z29	X30	Y30	Z30	X31	Y31	Z31	X32	Y32	Z32	X33	Y33	Z33	X34	Y34	Z34	X35	Y35	Z35	X36	Y36	Z36	X37	Y37	Z37	X38	Y38	Z38	X39	Y39	Z39	X40	Y40	Z40	X41	Y41	Z41	X42	Y42	Z42	X43	Y43	Z43	X44	Y44	Z44	X45	Y45	Z45	X46	Y46	Z46	X47	Y47	Z47	X48	Y48	Z48	

23	0.220	1513.44434	890.64056	1649.49597	1382.67700	894.90009	1633.20557	1520.70142	1022.42462	1591.35901	1392.43359	1025.18591	1581.13647	1466.18262	1023.56543	1434.25439	1463.34216	1062.17920	1105.86707	1466.67444	912.89972	1355.75464	1480.19116	876.44733	1179.64905	1395.50952	1098.33484	1263.46240	1626.00256	971.85986	1393.22266	1714.99646	926.47235	1205.88501	1739.67151	885.82086	1102.68677	1755.32996	775.06781	1000.70850	1699.11682	663.94861	950.02045	1745.68237	698.71497	909.44788	1738.86511	613.09326	881.24426	1304.52063	959.83588	1384.38501	1223.74902	1039.18384	1197.05481	1213.30127	1058.58618	1076.48071	1193.42822	1083.81299	959.03632	1216.94958	1075.01697	805.65094	1180.93030	1127.31152	827.67999	1175.82043	1121.16284	743.14032	1582.96313	893.47516	943.29236	1362.53198	879.56097	949.87976	1541.77588	1048.38049	973.45306	1373.88574	1030.48450	971.71387	1632.62463	1002.13177	637.73792	1612.57129	1038.04871	476.04807	1608.74988	1159.21472	246.42618	1567.31836	1227.75415	87.09811	1524.05322	1272.99646	81.77721	1563.75574	1092.45789	39.46695	1286.79236	860.25781	626.78400	1316.82300	808.29797	512.46906	1316.07336	776.71490	254.60374	1355.62439	720.63391	75.21619	1406.56287	744.46429	44.27446	1343.12830	561.99585	69.94661	1456.39783	993.94568	1682.96448																								 
24	0.230	1512.58740	879.95874	1648.99048	1381.88550	884.10358	1632.63684	1519.88599	1011.66785	1590.66101	1391.73816	1014.53766	1580.40222	1465.39709	1012.55023	1433.63672	1462.54382	1050.89685	1105.20605	1465.86633	901.84119	1355.13477	1479.53503	865.09741	1179.01343	1394.76868	1087.14075	1262.73193	1625.29150	960.84937	1392.48694	1713.83423	916.13892	1204.75269	1738.28699	875.91711	1101.40466	1753.72388	764.25305	1000.68994	1697.19507	652.16644	952.41541	1743.09436	686.36823	910.73914	1736.33411	600.21320	884.04602	1303.71716	948.66278	1383.70398	1222.94385	1028.22229	1196.55005	1212.35254	1047.76147	1075.96521	1192.28369	1073.30798	958.61334	1215.76648	1064.86682	805.14655	1179.76379	1117.12976	827.35626	1174.48376	1111.11536	742.86267	1582.13000	882.60913	942.37946	1362.21008	868.32886	949.26434	1540.57056	1037.26733	972.63062	1372.82373	1018.90778	971.44849	1631.75684	992.83557	637.15106	1611.97278	1029.81458	475.69470	1608.84790	1154.91296	248.12967	1568.01306	1226.35181	89.89132	1524.87646	1271.82776	85.37682	1563.88257	1092.21130	39.47022	1286.10779	848.52026	626.18152	1316.94055	798.47742	511.40988	1316.06067	764.85760	253.71477	1355.70313	708.97107	74.59743	1406.56616	733.05591	43.83874	1344.32312	550.32367	69.79230	1455.51135	983.28821	1682.28625																								 
25	0.240	1511.74011	869.21167	1648.54846	1381.03149	873.26526	1632.14026	1518.90100	1000.87854	1590.02783	1390.81616	1003.59894	1579.76294	1464.56140	1001.55347	1433.05603	1461.67041	1039.46094	1104.60046	1464.97961	890.81329	1354.63660	1478.71802	853.86993	1178.54236	1393.90613	1075.87158	1262.13049	1624.42200	949.76190	1391.78711	1712.62646	905.84570	1203.70178	1736.69568	866.18439	1100.03333	1751.83167	753.70331	1000.48712	1695.15100	640.83289	954.43744	1740.32190	674.53619	911.78503	1733.76880	588.00104	886.47333	1302.83972	937.55029	1383.21875	1222.01843	1017.05756	1196.04504	1211.32629	1036.64209	1075.55615	1191.16577	1062.29004	958.23822	1214.48181	1054.14575	804.79095	1178.57788	1106.33459	827.11700	1173.04358	1100.41870	742.63721	1581.17578	871.47754	941.62006	1360.86011	856.02429	949.09460	1539.21313	1025.89685	971.91589	1371.61597	1007.00598	971.26660	1630.85425	983.20276	636.66461	1611.23083	1021.15582	475.34515	1608.82361	1150.20569	249.96411	1568.66541	1224.72839	93.00793	1525.68274	1270.31799	89.36087	1563.98718	1091.86047	39.48571	1285.67542	837.22137	625.45197	1316.62134	788.20361	510.51709	1316.06433	754.10168	252.89212	1356.03040	699.16095	73.49416	1406.67944	723.57672	43.26811	1345.31274	540.43445	68.67382	1454.54370	972.51965	1681.70532																								 
26	0.250	1510.77026	858.38556	1648.14172	1380.08716	862.36255	1631.72742	1517.85046	990.07257	1589.56702	1389.73560	992.67285	1579.27954	1463.57898	990.60980	1432.46216	1460.59033	1027.87927	1104.06824	1463.99927	879.57605	1354.23621	1477.69287	842.56750	1178.26123	1392.90015	1064.48572	1261.56897	1623.44409	938.71057	1391.17346	1711.28589	895.57318	1202.73901	1735.05640	856.61554	1098.76965	1749.58313	743.45215	1000.05603	1693.00464	630.02942	955.98138	1737.76709	663.25867	912.49939	1731.43738	576.73706	888.47192	1301.84387	926.34698	1382.87097	1220.93335	1005.75574	1195.78650	1210.22192	1025.14600	1075.20007	1190.04456	1050.72595	957.89594	1213.28955	1042.72241	804.22412	1177.28552	1094.93445	826.80798	1171.60522	1089.09583	742.39264	1580.15308	860.08771	941.01392	1360.07727	844.42023	948.80420	1537.79822	1014.24524	971.44110	1370.25562	994.87433	971.29614	1629.82825	973.18896	636.16321	1610.39954	1011.94440	475.00299	1608.76294	1145.12122	252.02072	1569.20715	1222.80676	96.47081	1526.40845	1268.56543	93.85015	1564.01196	1091.33215	39.54426	1285.30554	826.58453	624.82959	1316.29114	777.91595	510.08167	1316.30493	744.31055	251.86868	1356.49243	691.24139	71.98819	1407.02966	716.36646	42.61298	1346.30737	532.73505	66.61903	1453.55530	961.74603	1681.24133																								 
27	0.260	1509.82666	847.61438	1647.90735	1379.12463	851.38049	1631.46973	1516.77100	979.24774	1589.26294	1388.62073	981.68512	1578.93213	1462.51514	979.76050	1431.99719	1459.41272	1016.06183	1103.59766	1462.87915	868.39685	1354.03784	1476.51672	831.10138	1178.14612	1391.75293	1053.08240	1261.00842	1622.28857	927.69049	1390.58337	1709.81262	885.30933	1201.82874	1733.29382	847.24072	1097.51941	1747.74048	733.68628	999.61365	1690.72351	619.65509	957.08783	1734.84497	652.52045	912.86279	1728.79285	565.80560	889.93457	1300.77942	915.17365	1382.75867	1219.74170	994.20105	1195.58374	1209.03479	1013.43896	1074.95776	1188.85889	1038.84570	957.60931	1212.13159	1030.77539	804.15015	1176.04932	1082.83191	826.51740	1170.40222	1076.85547	742.04242	1578.99988	848.36847	940.59631	1358.65918	831.78363	948.81323	1536.24121	1002.33386	971.10681	1368.59973	982.72406	971.55005	1628.70300	962.75702	635.84863	1609.45215	1002.16888	474.76254	1608.61133	1139.65735	254.37401	1569.80371	1220.57483	100.35966	1527.07593	1266.41455	98.78012	1564.06238	1090.86426	39.57958	1285.16846	815.90845	624.46027	1316.60364	767.63184	510.30908	1316.51953	735.65442	250.74312	1356.72717	685.38678	70.70495	1407.13708	712.53235	43.42766	1347.67004	527.56628	61.08238	1452.47498	950.91388	1680.94629																								 
28	0.270	1508.81628	836.74072	1648.04431	1378.02039	840.39575	1631.58386	1515.59253	968.38971	1589.21680	1387.44177	970.65759	1578.85156	1461.33496	968.89972	1431.85645	1458.14771	1003.99475	1103.26099	1461.78162	857.18408	1354.21057	1475.06348	820.81793	1178.22388	1390.42664	1041.63477	1260.47546	1621.11072	916.67328	1390.20459	1708.24756	875.12177	1201.06714	1731.55701	838.09155	1096.35913	1745.67297	724.29388	998.98511	1688.45898	609.89972	957.86407	1732.36060	642.39844	913.01697	1726.06128	555.52979	890.86591	1299.64014	903.98767	1382.90735	1218.38721	982.52039	1195.49878	1207.75024	1001.40790	1074.82825	1187.63574	1026.51025	957.40863	1211.12329	1018.11896	803.90790	1174.76709	1070.16528	826.26532	1169.14404	1064.09778	741.90045	1577.72559	836.18738	940.31970	1357.44568	819.55762	949.10535	1534.76160	990.28564	971.00006	1366.77881	970.58063	972.12506	1627.31689	951.83984	635.50183	1608.16064	991.80939	474.56830	1608.36096	1133.62244	256.94641	1570.47778	1217.89404	104.66043	1527.96301	1263.92065	104.36308	1563.82568	1090.15479	39.34645	1285.28650	805.21826	624.86365	1316.92053	756.80646	511.56396	1316.39258	727.70953	250.36009	1356.39697	682.76917	70.09682	1406.86987	711.77435	44.37991	1350.25842	525.18024	52.02346	1451.33228	940.05817	1680.90796																								 
